<svg width="1666" height="884" viewBox="0 0 1666 884" fill="none" xmlns="http://www.w3.org/2000/svg">
<path d="M1125.82 747L1158.33 563.704H1298.62L1290.42 609.784H1204.15L1198.78 640.504H1273.02L1266.1 680.952H1191.61L1179.83 747H1125.82ZM1286.82 747L1319.07 563.704H1390.75L1411.49 682.488H1414.05L1475.49 563.704H1548.45L1515.94 747H1463.71L1483.17 636.92H1480.61L1422.24 747H1380.51L1361.06 637.176H1358.5L1339.04 747H1286.82Z" fill="white"/>
<path d="M1661 449H1009V881H1661V449Z" stroke="white" stroke-width="5"/>
<path d="M1661 453H1009V877H1661V453Z" stroke="white" stroke-width="5"/>
<path fill-rule="evenodd" clip-rule="evenodd" d="M1004 0H0V444H1004V0ZM192.634 295.532C199.376 304.38 209.593 308.804 223.286 308.804C232.556 308.804 240.982 307.54 248.566 305.012L251.094 283.524C244.142 285.63 237.296 286.684 230.554 286.684C223.392 286.684 218.125 284.472 214.754 280.048C211.594 275.413 210.752 269.198 212.226 261.404L229.606 164.076H270.37L273.846 143.22H233.082L242.562 91.7116H221.706L206.854 143.22H180.942L177.466 164.076H203.378L185.998 260.772C183.681 275.097 185.893 286.684 192.634 295.532ZM323.656 107.196C326.816 110.988 331.345 112.884 337.244 112.884C342.3 112.884 346.724 111.304 350.516 108.144C354.519 104.984 356.941 100.876 357.784 95.8196C358.627 89.9212 357.468 85.0756 354.308 81.2836C351.148 77.4916 346.618 75.5956 340.72 75.5956C335.453 75.5956 331.029 77.1756 327.448 80.3356C323.867 83.2852 321.549 87.2876 320.496 92.344C319.442 98.4532 320.496 103.404 323.656 107.196ZM317.336 143.22L289.212 302.8H315.44L343.564 143.22H317.336ZM393.154 143.22L364.714 302.8H390.942L407.688 208.316C410.008 194.201 416.116 182.72 426.016 173.872C435.92 165.024 447.612 160.6 461.092 160.6C472.892 160.6 481.528 164.708 487.004 172.924C492.692 181.14 494.38 192.305 492.06 206.42L474.996 302.8H501.224L517.972 208.316C520.292 194.622 526.504 183.246 536.616 174.188C546.94 165.129 558.632 160.6 571.692 160.6C583.28 160.6 592.024 164.918 597.92 173.556C603.82 181.982 605.612 192.937 603.292 206.42L586.228 302.8H612.456L629.204 208.632C632.788 187.986 629.52 170.922 619.408 157.44C609.508 143.957 594.972 137.216 575.8 137.216C552.208 137.216 533.036 147.117 518.288 166.92L514.812 168.816C511.864 159.336 506.072 151.646 497.432 145.748C488.796 139.849 478.896 136.9 467.728 136.9C446.872 136.9 430.02 145.748 417.168 163.444L414.64 164.392L418.432 143.22H393.154ZM676.204 283.84C689.9 300.693 709.384 309.12 734.664 309.12C751.94 309.12 767.952 305.433 782.696 298.06C797.444 290.476 809.24 279.837 818.088 266.144L797.548 253.504C790.808 263.194 781.96 270.989 771.004 276.888C760.052 282.576 748.464 285.42 736.244 285.42C720.444 285.42 708.12 280.68 699.272 271.2C690.424 261.72 686.424 248.869 687.264 232.648H828.832C829.676 229.909 830.308 226.749 830.728 223.168C835.152 198.309 830.728 177.769 817.456 161.548C804.184 145.116 785.224 136.9 760.576 136.9C736.352 136.9 715.072 144.694 696.744 160.284C678.416 175.662 667.148 195.254 662.932 219.06C658.3 245.182 662.724 266.776 676.204 283.84ZM805.764 207.684L692.004 209.58C696.852 195.044 705.384 183.246 717.6 174.188C729.82 165.129 743.408 160.6 758.364 160.6C773.112 160.6 784.804 164.918 793.44 173.556C802.08 181.982 806.188 193.358 805.764 207.684Z" fill="white"/>
</svg>
